SplineFontDB: 3.2
FontName: Digits
FullName: Digits Regular
FamilyName: Digits
Weight: Book
Copyright: Copyright SteelCrateGames 2015
Version: 1.0
ItalicAngle: 0
UnderlinePosition: 77
UnderlineWidth: 51
Ascent: 819
Descent: 205
InvalidEm: 0
sfntRevision: 0x00010000
LayerCount: 2
Layer: 0 1 "Back" 1
Layer: 1 1 "Fore" 0
XUID: [1021 610 1617773329 8393310]
StyleMap: 0x0040
FSType: 4
OS2Version: 2
OS2_WeightWidthSlopeOnly: 0
OS2_UseTypoMetrics: 0
CreationTime: 1704819340
ModificationTime: 1732400045
PfmFamily: 81
TTFWeight: 400
TTFWidth: 5
LineGap: 0
VLineGap: 0
Panose: 0 0 4 0 0 0 0 0 0 0
OS2TypoAscent: 192
OS2TypoAOffset: 0
OS2TypoDescent: 0
OS2TypoDOffset: 0
OS2TypoLinegap: 0
OS2WinAscent: 2016
OS2WinAOffset: 0
OS2WinDescent: 0
OS2WinDOffset: 0
HheadAscent: 2016
HheadAOffset: 0
HheadDescent: 0
HheadDOffset: 0
OS2SubXSize: 512
OS2SubYSize: 512
OS2SubXOff: 0
OS2SubYOff: 0
OS2SupXSize: 512
OS2SupYSize: 512
OS2SupXOff: 0
OS2SupYOff: 512
OS2StrikeYSize: 51
OS2StrikeYPos: 204
OS2Vendor: 'FSTR'
OS2CodePages: 00000001.00000000
OS2UnicodeRanges: 00000000.00000000.00000000.00000000
DEI: 91125
ShortTable: maxp 16
  1
  0
  15
  811
  135
  0
  0
  2
  0
  0
  0
  0
  0
  0
  0
  0
EndShort
LangName: 1033 "" "" "Regular" "Digits" "" "Version 1.0" "" "FontStruct is a trademark of FontStruct.com" "https://fontstruct.com" "SteelCrateGames" "+IBwA-Digits+IB0A was built with FontStruct+AAoA-Designer description: 7-segment display font. Numbers, comma, and colon only. Please clone if you want to extend it!+AA0ACgANAAoA-Used for the bomb's countdown timer in the co-op bomb defusal game, Keep Talking and Nobody Explodes.+AAoA" "https://fontstruct.com/fontstructions/show/1141570/digits_35" "https://fontstruct.com/fontstructors/show/1215197/steelcrategames" "Creative Commons CC0 Public Domain Dedication" "http://creativecommons.org/publicdomain/zero/1.0/" "" "" "" "" "Five big quacking zephyrs jolt my wax bed"
Encoding: UnicodeBmp
UnicodeInterp: none
NameList: AGL For New Fonts

StartChar: .notdef
Encoding: 65536 -1 0
Width: 179
GlyphClass: 1
Flags: W
LayerCount: 2
Fore
SplineSet
78 50 m 1,0,-1
 73 76 l 1,1,-1
 69 50 l 1,2,-1
 78 50 l 1,0,-1
50 69 m 1,3,-1
 54 96 l 1,4,-1
 50 122 l 1,5,-1
 50 69 l 1,3,-1
97 69 m 1,6,-1
 97 122 l 1,7,-1
 93 96 l 1,8,-1
 97 69 l 1,6,-1
73 115 m 1,9,-1
 78 142 l 1,10,-1
 69 142 l 1,11,-1
 73 115 l 1,9,-1
0 0 m 1,12,-1
 0 192 l 1,13,-1
 147 192 l 1,14,-1
 147 0 l 1,15,-1
 0 0 l 1,12,-1
EndSplineSet
EndChar

StartChar: period
Encoding: 46 46 2
Width: 256
GlyphClass: 1
Flags: W
LayerCount: 2
Fore
SplineSet
64 0 m 1,0,-1
 0 64 l 1,1,-1
 0 128 l 1,2,-1
 64 192 l 1,3,-1
 128 128 l 1,4,-1
 128 64 l 1,5,-1
 64 0 l 1,0,-1
EndSplineSet
EndChar

StartChar: zero
Encoding: 48 48 3
Width: 640
GlyphClass: 1
Flags: W
LayerCount: 2
Fore
SplineSet
64 0 m 1,0,-1
 64 32 l 1,1,-1
 160 128 l 1,2,-1
 352 128 l 1,3,-1
 448 32 l 1,4,-1
 448 0 l 1,5,-1
 64 0 l 1,0,-1
0 64 m 1,6,-1
 0 448 l 1,7,-1
 32 448 l 1,8,-1
 128 352 l 1,9,-1
 128 160 l 1,10,-1
 32 64 l 1,11,-1
 0 64 l 1,6,-1
480 64 m 1,12,-1
 384 160 l 1,13,-1
 384 352 l 1,14,-1
 480 448 l 1,15,-1
 512 448 l 1,16,-1
 512 64 l 1,17,-1
 480 64 l 1,12,-1
0 512 m 1,18,-1
 0 896 l 1,19,-1
 32 896 l 1,20,-1
 128 800 l 1,21,-1
 128 608 l 1,22,-1
 32 512 l 1,23,-1
 0 512 l 1,18,-1
480 512 m 1,24,-1
 384 608 l 1,25,-1
 384 800 l 1,26,-1
 480 896 l 1,27,-1
 512 896 l 1,28,-1
 512 512 l 1,29,-1
 480 512 l 1,24,-1
160 832 m 1,30,-1
 64 928 l 1,31,-1
 64 960 l 1,32,-1
 448 960 l 1,33,-1
 448 928 l 1,34,-1
 352 832 l 1,35,-1
 160 832 l 1,30,-1
EndSplineSet
EndChar

StartChar: one
Encoding: 49 49 4
Width: 640
GlyphClass: 1
Flags: W
LayerCount: 2
Fore
SplineSet
480 64 m 1,0,-1
 384 160 l 1,1,-1
 384 352 l 1,2,-1
 480 448 l 1,3,-1
 512 448 l 1,4,-1
 512 64 l 1,5,-1
 480 64 l 1,0,-1
480 512 m 1,6,-1
 384 608 l 1,7,-1
 384 800 l 1,8,-1
 480 896 l 1,9,-1
 512 896 l 1,10,-1
 512 512 l 1,11,-1
 480 512 l 1,6,-1
EndSplineSet
EndChar

StartChar: two
Encoding: 50 50 5
Width: 640
GlyphClass: 1
Flags: W
LayerCount: 2
Fore
SplineSet
64 0 m 1,0,-1
 64 32 l 1,1,-1
 160 128 l 1,2,-1
 352 128 l 1,3,-1
 448 32 l 1,4,-1
 448 0 l 1,5,-1
 64 0 l 1,0,-1
0 64 m 1,6,-1
 0 448 l 1,7,-1
 32 448 l 1,8,-1
 128 352 l 1,9,-1
 128 160 l 1,10,-1
 32 64 l 1,11,-1
 0 64 l 1,6,-1
128 416 m 1,12,-1
 64 480 l 1,13,-1
 128 544 l 1,14,-1
 384 544 l 1,15,-1
 448 480 l 1,16,-1
 384 416 l 1,17,-1
 128 416 l 1,12,-1
480 512 m 1,18,-1
 384 608 l 1,19,-1
 384 800 l 1,20,-1
 480 896 l 1,21,-1
 512 896 l 1,22,-1
 512 512 l 1,23,-1
 480 512 l 1,18,-1
160 832 m 1,24,-1
 64 928 l 1,25,-1
 64 960 l 1,26,-1
 448 960 l 1,27,-1
 448 928 l 1,28,-1
 352 832 l 1,29,-1
 160 832 l 1,24,-1
EndSplineSet
EndChar

StartChar: three
Encoding: 51 51 6
Width: 640
GlyphClass: 1
Flags: W
LayerCount: 2
Fore
SplineSet
64 0 m 1,0,-1
 64 32 l 1,1,-1
 160 128 l 1,2,-1
 352 128 l 1,3,-1
 448 32 l 1,4,-1
 448 0 l 1,5,-1
 64 0 l 1,0,-1
480 64 m 1,6,-1
 384 160 l 1,7,-1
 384 352 l 1,8,-1
 480 448 l 1,9,-1
 512 448 l 1,10,-1
 512 64 l 1,11,-1
 480 64 l 1,6,-1
128 416 m 1,12,-1
 64 480 l 1,13,-1
 128 544 l 1,14,-1
 384 544 l 1,15,-1
 448 480 l 1,16,-1
 384 416 l 1,17,-1
 128 416 l 1,12,-1
480 512 m 1,18,-1
 384 608 l 1,19,-1
 384 800 l 1,20,-1
 480 896 l 1,21,-1
 512 896 l 1,22,-1
 512 512 l 1,23,-1
 480 512 l 1,18,-1
160 832 m 1,24,-1
 64 928 l 1,25,-1
 64 960 l 1,26,-1
 448 960 l 1,27,-1
 448 928 l 1,28,-1
 352 832 l 1,29,-1
 160 832 l 1,24,-1
EndSplineSet
EndChar

StartChar: four
Encoding: 52 52 7
Width: 640
GlyphClass: 1
Flags: W
LayerCount: 2
Fore
SplineSet
480 64 m 1,0,-1
 384 160 l 1,1,-1
 384 352 l 1,2,-1
 480 448 l 1,3,-1
 512 448 l 1,4,-1
 512 64 l 1,5,-1
 480 64 l 1,0,-1
128 416 m 1,6,-1
 64 480 l 1,7,-1
 128 544 l 1,8,-1
 384 544 l 1,9,-1
 448 480 l 1,10,-1
 384 416 l 1,11,-1
 128 416 l 1,6,-1
0 512 m 1,12,-1
 0 896 l 1,13,-1
 32 896 l 1,14,-1
 128 800 l 1,15,-1
 128 608 l 1,16,-1
 32 512 l 1,17,-1
 0 512 l 1,12,-1
480 512 m 1,18,-1
 384 608 l 1,19,-1
 384 800 l 1,20,-1
 480 896 l 1,21,-1
 512 896 l 1,22,-1
 512 512 l 1,23,-1
 480 512 l 1,18,-1
EndSplineSet
EndChar

StartChar: five
Encoding: 53 53 8
Width: 640
GlyphClass: 1
Flags: W
LayerCount: 2
Fore
SplineSet
64 0 m 1,0,-1
 64 32 l 1,1,-1
 160 128 l 1,2,-1
 352 128 l 1,3,-1
 448 32 l 1,4,-1
 448 0 l 1,5,-1
 64 0 l 1,0,-1
480 64 m 1,6,-1
 384 160 l 1,7,-1
 384 352 l 1,8,-1
 480 448 l 1,9,-1
 512 448 l 1,10,-1
 512 64 l 1,11,-1
 480 64 l 1,6,-1
128 416 m 1,12,-1
 64 480 l 1,13,-1
 128 544 l 1,14,-1
 384 544 l 1,15,-1
 448 480 l 1,16,-1
 384 416 l 1,17,-1
 128 416 l 1,12,-1
0 512 m 1,18,-1
 0 896 l 1,19,-1
 32 896 l 1,20,-1
 128 800 l 1,21,-1
 128 608 l 1,22,-1
 32 512 l 1,23,-1
 0 512 l 1,18,-1
160 832 m 1,24,-1
 64 928 l 1,25,-1
 64 960 l 1,26,-1
 448 960 l 1,27,-1
 448 928 l 1,28,-1
 352 832 l 1,29,-1
 160 832 l 1,24,-1
EndSplineSet
EndChar

StartChar: six
Encoding: 54 54 9
Width: 640
GlyphClass: 1
Flags: W
LayerCount: 2
Fore
SplineSet
64 0 m 1,0,-1
 64 32 l 1,1,-1
 160 128 l 1,2,-1
 352 128 l 1,3,-1
 448 32 l 1,4,-1
 448 0 l 1,5,-1
 64 0 l 1,0,-1
0 64 m 1,6,-1
 0 448 l 1,7,-1
 32 448 l 1,8,-1
 128 352 l 1,9,-1
 128 160 l 1,10,-1
 32 64 l 1,11,-1
 0 64 l 1,6,-1
480 64 m 1,12,-1
 384 160 l 1,13,-1
 384 352 l 1,14,-1
 480 448 l 1,15,-1
 512 448 l 1,16,-1
 512 64 l 1,17,-1
 480 64 l 1,12,-1
128 416 m 1,18,-1
 64 480 l 1,19,-1
 128 544 l 1,20,-1
 384 544 l 1,21,-1
 448 480 l 1,22,-1
 384 416 l 1,23,-1
 128 416 l 1,18,-1
0 512 m 1,24,-1
 0 896 l 1,25,-1
 32 896 l 1,26,-1
 128 800 l 1,27,-1
 128 608 l 1,28,-1
 32 512 l 1,29,-1
 0 512 l 1,24,-1
160 832 m 1,30,-1
 64 928 l 1,31,-1
 64 960 l 1,32,-1
 448 960 l 1,33,-1
 448 928 l 1,34,-1
 352 832 l 1,35,-1
 160 832 l 1,30,-1
EndSplineSet
EndChar

StartChar: seven
Encoding: 55 55 10
Width: 640
GlyphClass: 1
Flags: W
LayerCount: 2
Fore
SplineSet
480 64 m 1,0,-1
 384 160 l 1,1,-1
 384 352 l 1,2,-1
 480 448 l 1,3,-1
 512 448 l 1,4,-1
 512 64 l 1,5,-1
 480 64 l 1,0,-1
480 512 m 1,6,-1
 384 608 l 1,7,-1
 384 800 l 1,8,-1
 480 896 l 1,9,-1
 512 896 l 1,10,-1
 512 512 l 1,11,-1
 480 512 l 1,6,-1
160 832 m 1,12,-1
 64 928 l 1,13,-1
 64 960 l 1,14,-1
 448 960 l 1,15,-1
 448 928 l 1,16,-1
 352 832 l 1,17,-1
 160 832 l 1,12,-1
EndSplineSet
EndChar

StartChar: eight
Encoding: 56 56 11
Width: 640
GlyphClass: 1
Flags: W
LayerCount: 2
Fore
SplineSet
64 0 m 1,0,-1
 64 32 l 1,1,-1
 160 128 l 1,2,-1
 352 128 l 1,3,-1
 448 32 l 1,4,-1
 448 0 l 1,5,-1
 64 0 l 1,0,-1
0 64 m 1,6,-1
 0 448 l 1,7,-1
 32 448 l 1,8,-1
 128 352 l 1,9,-1
 128 160 l 1,10,-1
 32 64 l 1,11,-1
 0 64 l 1,6,-1
480 64 m 1,12,-1
 384 160 l 1,13,-1
 384 352 l 1,14,-1
 480 448 l 1,15,-1
 512 448 l 1,16,-1
 512 64 l 1,17,-1
 480 64 l 1,12,-1
128 416 m 1,18,-1
 64 480 l 1,19,-1
 128 544 l 1,20,-1
 384 544 l 1,21,-1
 448 480 l 1,22,-1
 384 416 l 1,23,-1
 128 416 l 1,18,-1
0 512 m 1,24,-1
 0 896 l 1,25,-1
 32 896 l 1,26,-1
 128 800 l 1,27,-1
 128 608 l 1,28,-1
 32 512 l 1,29,-1
 0 512 l 1,24,-1
480 512 m 1,30,-1
 384 608 l 1,31,-1
 384 800 l 1,32,-1
 480 896 l 1,33,-1
 512 896 l 1,34,-1
 512 512 l 1,35,-1
 480 512 l 1,30,-1
160 832 m 1,36,-1
 64 928 l 1,37,-1
 64 960 l 1,38,-1
 448 960 l 1,39,-1
 448 928 l 1,40,-1
 352 832 l 1,41,-1
 160 832 l 1,36,-1
EndSplineSet
EndChar

StartChar: nine
Encoding: 57 57 12
Width: 640
GlyphClass: 1
Flags: W
LayerCount: 2
Fore
SplineSet
64 0 m 1,0,-1
 64 32 l 1,1,-1
 160 128 l 1,2,-1
 352 128 l 1,3,-1
 448 32 l 1,4,-1
 448 0 l 1,5,-1
 64 0 l 1,0,-1
480 64 m 1,6,-1
 384 160 l 1,7,-1
 384 352 l 1,8,-1
 480 448 l 1,9,-1
 512 448 l 1,10,-1
 512 64 l 1,11,-1
 480 64 l 1,6,-1
128 416 m 1,12,-1
 64 480 l 1,13,-1
 128 544 l 1,14,-1
 384 544 l 1,15,-1
 448 480 l 1,16,-1
 384 416 l 1,17,-1
 128 416 l 1,12,-1
0 512 m 1,18,-1
 0 896 l 1,19,-1
 32 896 l 1,20,-1
 128 800 l 1,21,-1
 128 608 l 1,22,-1
 32 512 l 1,23,-1
 0 512 l 1,18,-1
480 512 m 1,24,-1
 384 608 l 1,25,-1
 384 800 l 1,26,-1
 480 896 l 1,27,-1
 512 896 l 1,28,-1
 512 512 l 1,29,-1
 480 512 l 1,24,-1
160 832 m 1,30,-1
 64 928 l 1,31,-1
 64 960 l 1,32,-1
 448 960 l 1,33,-1
 448 928 l 1,34,-1
 352 832 l 1,35,-1
 160 832 l 1,30,-1
EndSplineSet
EndChar

StartChar: colon
Encoding: 58 58 13
Width: 256
GlyphClass: 1
Flags: W
LayerCount: 2
Fore
SplineSet
64 160 m 1,0,-1
 0 224 l 1,1,-1
 0 288 l 1,2,-1
 64 352 l 1,3,-1
 128 288 l 1,4,-1
 128 224 l 1,5,-1
 64 160 l 1,0,-1
64 608 m 1,6,-1
 0 672 l 1,7,-1
 0 736 l 1,8,-1
 64 800 l 1,9,-1
 128 736 l 1,10,-1
 128 672 l 1,11,-1
 64 608 l 1,6,-1
EndSplineSet
EndChar

StartChar: uni007F
Encoding: 127 127 14
Width: 9312
GlyphClass: 1
Flags: W
LayerCount: 2
Fore
SplineSet
64 0 m 1,0,-1
 64 32 l 1,1,-1
 160 128 l 1,2,-1
 352 128 l 1,3,-1
 448 32 l 1,4,-1
 448 0 l 1,5,-1
 64 0 l 1,0,-1
672 0 m 1,6,-1
 800 128 l 1,7,-1
 992 128 l 1,8,-1
 1120 0 l 1,9,-1
 672 0 l 1,6,-1
1440 0 m 1,10,-1
 1376 64 l 1,11,-1
 1440 128 l 1,12,-1
 1632 128 l 1,13,-1
 1696 64 l 1,14,-1
 1632 0 l 1,15,-1
 1440 0 l 1,10,-1
2112 0 m 1,16,-1
 2112 32 l 1,17,-1
 2208 128 l 1,18,-1
 2400 128 l 1,19,-1
 2496 32 l 1,20,-1
 2496 0 l 1,21,-1
 2112 0 l 1,16,-1
2848 0 m 1,22,-1
 2848 32 l 1,23,-1
 2944 128 l 1,24,-1
 3136 128 l 1,25,-1
 3232 32 l 1,26,-1
 3232 0 l 1,27,-1
 2848 0 l 1,22,-1
3616 0 m 1,28,-1
 3616 32 l 1,29,-1
 3712 128 l 1,30,-1
 3904 128 l 1,31,-1
 4000 32 l 1,32,-1
 4000 0 l 1,33,-1
 3616 0 l 1,28,-1
4352 0 m 1,34,-1
 4352 32 l 1,35,-1
 4448 128 l 1,36,-1
 4640 128 l 1,37,-1
 4736 32 l 1,38,-1
 4736 0 l 1,39,-1
 4352 0 l 1,34,-1
5120 0 m 1,40,-1
 5120 32 l 1,41,-1
 5216 128 l 1,42,-1
 5408 128 l 1,43,-1
 5504 32 l 1,44,-1
 5504 0 l 1,45,-1
 5120 0 l 1,40,-1
5664 0 m 1,46,-1
 5632 32 l 1,47,-1
 5632 96 l 1,48,-1
 5664 128 l 1,49,-1
 5696 128 l 1,50,-1
 5728 96 l 1,51,-1
 5728 32 l 1,52,-1
 5696 0 l 1,53,-1
 5664 0 l 1,46,-1
5856 0 m 1,54,-1
 5856 32 l 1,55,-1
 5952 128 l 1,56,-1
 6144 128 l 1,57,-1
 6240 32 l 1,58,-1
 6240 0 l 1,59,-1
 5856 0 l 1,54,-1
6496 0 m 1,60,-1
 6496 32 l 1,61,-1
 6592 128 l 1,62,-1
 6784 128 l 1,63,-1
 6880 32 l 1,64,-1
 6880 0 l 1,65,-1
 6496 0 l 1,60,-1
7296 0 m 1,66,-1
 7296 32 l 1,67,-1
 7392 128 l 1,68,-1
 7584 128 l 1,69,-1
 7680 32 l 1,70,-1
 7680 0 l 1,71,-1
 7296 0 l 1,66,-1
7840 0 m 1,72,-1
 7840 128 l 1,73,-1
 7936 128 l 1,74,-1
 7936 0 l 1,75,-1
 7840 0 l 1,72,-1
8096 0 m 1,76,-1
 8096 32 l 1,77,-1
 8192 128 l 1,78,-1
 8384 128 l 1,79,-1
 8480 32 l 1,80,-1
 8480 0 l 1,81,-1
 8096 0 l 1,76,-1
8736 0 m 1,82,-1
 8736 32 l 1,83,-1
 8832 128 l 1,84,-1
 9024 128 l 1,85,-1
 9120 32 l 1,86,-1
 9120 0 l 1,87,-1
 8736 0 l 1,82,-1
2656 192 m 1,88,-1
 2624 224 l 1,89,-1
 2624 288 l 1,90,-1
 2656 320 l 1,91,-1
 2688 320 l 1,92,-1
 2720 288 l 1,93,-1
 2720 224 l 1,94,-1
 2688 192 l 1,95,-1
 2656 192 l 1,88,-1
4128 192 m 1,96,-1
 4128 320 l 1,97,-1
 4224 320 l 1,98,-1
 4224 192 l 1,99,-1
 4128 192 l 1,96,-1
1344 96 m 1,100,-1
 1280 160 l 1,101,-1
 1280 352 l 1,102,-1
 1344 416 l 1,103,-1
 1408 352 l 1,104,-1
 1408 160 l 1,105,-1
 1344 96 l 1,100,-1
1728 96 m 1,106,-1
 1664 160 l 1,107,-1
 1664 352 l 1,108,-1
 1728 416 l 1,109,-1
 1792 352 l 1,110,-1
 1792 160 l 1,111,-1
 1728 96 l 1,106,-1
0 64 m 1,112,-1
 0 448 l 1,113,-1
 32 448 l 1,114,-1
 128 352 l 1,115,-1
 128 160 l 1,116,-1
 32 64 l 1,117,-1
 0 64 l 1,112,-1
480 64 m 1,118,-1
 384 160 l 1,119,-1
 384 352 l 1,120,-1
 480 448 l 1,121,-1
 512 448 l 1,122,-1
 512 64 l 1,123,-1
 480 64 l 1,118,-1
640 32 m 1,124,-1
 640 448 l 1,125,-1
 672 448 l 1,126,-1
 768 352 l 1,127,-1
 768 160 l 1,128,-1
 640 32 l 1,124,-1
1152 32 m 1,129,-1
 1024 160 l 1,130,-1
 1024 352 l 1,131,-1
 1120 448 l 1,132,-1
 1152 448 l 1,133,-1
 1152 32 l 1,129,-1
2048 64 m 1,134,-1
 2048 448 l 1,135,-1
 2080 448 l 1,136,-1
 2176 352 l 1,137,-1
 2176 160 l 1,138,-1
 2080 64 l 1,139,-1
 2048 64 l 1,134,-1
2528 64 m 1,140,-1
 2432 160 l 1,141,-1
 2432 352 l 1,142,-1
 2528 448 l 1,143,-1
 2560 448 l 1,144,-1
 2560 64 l 1,145,-1
 2528 64 l 1,140,-1
2784 64 m 1,146,-1
 2784 448 l 1,147,-1
 2816 448 l 1,148,-1
 2912 352 l 1,149,-1
 2912 160 l 1,150,-1
 2816 64 l 1,151,-1
 2784 64 l 1,146,-1
3264 64 m 1,152,-1
 3168 160 l 1,153,-1
 3168 352 l 1,154,-1
 3264 448 l 1,155,-1
 3296 448 l 1,156,-1
 3296 64 l 1,157,-1
 3264 64 l 1,152,-1
3552 64 m 1,158,-1
 3552 448 l 1,159,-1
 3584 448 l 1,160,-1
 3680 352 l 1,161,-1
 3680 160 l 1,162,-1
 3584 64 l 1,163,-1
 3552 64 l 1,158,-1
4032 64 m 1,164,-1
 3936 160 l 1,165,-1
 3936 352 l 1,166,-1
 4032 448 l 1,167,-1
 4064 448 l 1,168,-1
 4064 64 l 1,169,-1
 4032 64 l 1,164,-1
4288 64 m 1,170,-1
 4288 448 l 1,171,-1
 4320 448 l 1,172,-1
 4416 352 l 1,173,-1
 4416 160 l 1,174,-1
 4320 64 l 1,175,-1
 4288 64 l 1,170,-1
4768 64 m 1,176,-1
 4672 160 l 1,177,-1
 4672 352 l 1,178,-1
 4768 448 l 1,179,-1
 4800 448 l 1,180,-1
 4800 64 l 1,181,-1
 4768 64 l 1,176,-1
5056 64 m 1,182,-1
 5056 448 l 1,183,-1
 5088 448 l 1,184,-1
 5184 352 l 1,185,-1
 5184 160 l 1,186,-1
 5088 64 l 1,187,-1
 5056 64 l 1,182,-1
5536 64 m 1,188,-1
 5440 160 l 1,189,-1
 5440 352 l 1,190,-1
 5536 448 l 1,191,-1
 5568 448 l 1,192,-1
 5568 64 l 1,193,-1
 5536 64 l 1,188,-1
5792 64 m 1,194,-1
 5792 448 l 1,195,-1
 5824 448 l 1,196,-1
 5920 352 l 1,197,-1
 5920 160 l 1,198,-1
 5824 64 l 1,199,-1
 5792 64 l 1,194,-1
6272 64 m 1,200,-1
 6176 160 l 1,201,-1
 6176 352 l 1,202,-1
 6272 448 l 1,203,-1
 6304 448 l 1,204,-1
 6304 64 l 1,205,-1
 6272 64 l 1,200,-1
6432 64 m 1,206,-1
 6432 448 l 1,207,-1
 6464 448 l 1,208,-1
 6560 352 l 1,209,-1
 6560 160 l 1,210,-1
 6464 64 l 1,211,-1
 6432 64 l 1,206,-1
6912 64 m 1,212,-1
 6816 160 l 1,213,-1
 6816 352 l 1,214,-1
 6912 448 l 1,215,-1
 6944 448 l 1,216,-1
 6944 64 l 1,217,-1
 6912 64 l 1,212,-1
7232 64 m 1,218,-1
 7232 448 l 1,219,-1
 7264 448 l 1,220,-1
 7360 352 l 1,221,-1
 7360 160 l 1,222,-1
 7264 64 l 1,223,-1
 7232 64 l 1,218,-1
7712 64 m 1,224,-1
 7616 160 l 1,225,-1
 7616 352 l 1,226,-1
 7712 448 l 1,227,-1
 7744 448 l 1,228,-1
 7744 64 l 1,229,-1
 7712 64 l 1,224,-1
8032 64 m 1,230,-1
 8032 448 l 1,231,-1
 8064 448 l 1,232,-1
 8160 352 l 1,233,-1
 8160 160 l 1,234,-1
 8064 64 l 1,235,-1
 8032 64 l 1,230,-1
8512 64 m 1,236,-1
 8416 160 l 1,237,-1
 8416 352 l 1,238,-1
 8512 448 l 1,239,-1
 8544 448 l 1,240,-1
 8544 64 l 1,241,-1
 8512 64 l 1,236,-1
8672 64 m 1,242,-1
 8672 448 l 1,243,-1
 8704 448 l 1,244,-1
 8800 352 l 1,245,-1
 8800 160 l 1,246,-1
 8704 64 l 1,247,-1
 8672 64 l 1,242,-1
9152 64 m 1,248,-1
 9056 160 l 1,249,-1
 9056 352 l 1,250,-1
 9152 448 l 1,251,-1
 9184 448 l 1,252,-1
 9184 64 l 1,253,-1
 9152 64 l 1,248,-1
1440 384 m 1,254,-1
 1376 448 l 1,255,-1
 1440 512 l 1,256,-1
 1632 512 l 1,257,-1
 1696 448 l 1,258,-1
 1632 384 l 1,259,-1
 1440 384 l 1,254,-1
128 416 m 1,260,-1
 64 480 l 1,261,-1
 128 544 l 1,262,-1
 384 544 l 1,263,-1
 448 480 l 1,264,-1
 384 416 l 1,265,-1
 128 416 l 1,260,-1
768 416 m 1,266,-1
 704 480 l 1,267,-1
 768 544 l 1,268,-1
 1024 544 l 1,269,-1
 1088 480 l 1,270,-1
 1024 416 l 1,271,-1
 768 416 l 1,266,-1
2176 416 m 1,272,-1
 2112 480 l 1,273,-1
 2176 544 l 1,274,-1
 2432 544 l 1,275,-1
 2496 480 l 1,276,-1
 2432 416 l 1,277,-1
 2176 416 l 1,272,-1
2912 416 m 1,278,-1
 2848 480 l 1,279,-1
 2912 544 l 1,280,-1
 3168 544 l 1,281,-1
 3232 480 l 1,282,-1
 3168 416 l 1,283,-1
 2912 416 l 1,278,-1
3680 416 m 1,284,-1
 3616 480 l 1,285,-1
 3680 544 l 1,286,-1
 3936 544 l 1,287,-1
 4000 480 l 1,288,-1
 3936 416 l 1,289,-1
 3680 416 l 1,284,-1
4416 416 m 1,290,-1
 4352 480 l 1,291,-1
 4416 544 l 1,292,-1
 4672 544 l 1,293,-1
 4736 480 l 1,294,-1
 4672 416 l 1,295,-1
 4416 416 l 1,290,-1
5184 416 m 1,296,-1
 5120 480 l 1,297,-1
 5184 544 l 1,298,-1
 5440 544 l 1,299,-1
 5504 480 l 1,300,-1
 5440 416 l 1,301,-1
 5184 416 l 1,296,-1
5920 416 m 1,302,-1
 5856 480 l 1,303,-1
 5920 544 l 1,304,-1
 6176 544 l 1,305,-1
 6240 480 l 1,306,-1
 6176 416 l 1,307,-1
 5920 416 l 1,302,-1
6560 416 m 1,308,-1
 6496 480 l 1,309,-1
 6560 544 l 1,310,-1
 6816 544 l 1,311,-1
 6880 480 l 1,312,-1
 6816 416 l 1,313,-1
 6560 416 l 1,308,-1
7360 416 m 1,314,-1
 7296 480 l 1,315,-1
 7360 544 l 1,316,-1
 7616 544 l 1,317,-1
 7680 480 l 1,318,-1
 7616 416 l 1,319,-1
 7360 416 l 1,314,-1
8160 416 m 1,320,-1
 8096 480 l 1,321,-1
 8160 544 l 1,322,-1
 8416 544 l 1,323,-1
 8480 480 l 1,324,-1
 8416 416 l 1,325,-1
 8160 416 l 1,320,-1
8800 416 m 1,326,-1
 8736 480 l 1,327,-1
 8800 544 l 1,328,-1
 9056 544 l 1,329,-1
 9120 480 l 1,330,-1
 9056 416 l 1,331,-1
 8800 416 l 1,326,-1
2656 640 m 1,332,-1
 2624 672 l 1,333,-1
 2624 736 l 1,334,-1
 2656 768 l 1,335,-1
 2688 768 l 1,336,-1
 2720 736 l 1,337,-1
 2720 672 l 1,338,-1
 2688 640 l 1,339,-1
 2656 640 l 1,332,-1
4128 640 m 1,340,-1
 4128 768 l 1,341,-1
 4224 768 l 1,342,-1
 4224 640 l 1,343,-1
 4128 640 l 1,340,-1
1344 480 m 1,344,-1
 1280 544 l 1,345,-1
 1280 736 l 1,346,-1
 1344 800 l 1,347,-1
 1408 736 l 1,348,-1
 1408 544 l 1,349,-1
 1344 480 l 1,344,-1
1728 480 m 1,350,-1
 1664 544 l 1,351,-1
 1664 736 l 1,352,-1
 1728 800 l 1,353,-1
 1792 736 l 1,354,-1
 1792 544 l 1,355,-1
 1728 480 l 1,350,-1
0 512 m 1,356,-1
 0 896 l 1,357,-1
 32 896 l 1,358,-1
 128 800 l 1,359,-1
 128 608 l 1,360,-1
 32 512 l 1,361,-1
 0 512 l 1,356,-1
480 512 m 1,362,-1
 384 608 l 1,363,-1
 384 800 l 1,364,-1
 480 896 l 1,365,-1
 512 896 l 1,366,-1
 512 512 l 1,367,-1
 480 512 l 1,362,-1
1440 768 m 1,368,-1
 1376 832 l 1,369,-1
 1440 896 l 1,370,-1
 1632 896 l 1,371,-1
 1696 832 l 1,372,-1
 1632 768 l 1,373,-1
 1440 768 l 1,368,-1
2048 512 m 1,374,-1
 2048 896 l 1,375,-1
 2080 896 l 1,376,-1
 2176 800 l 1,377,-1
 2176 608 l 1,378,-1
 2080 512 l 1,379,-1
 2048 512 l 1,374,-1
2528 512 m 1,380,-1
 2432 608 l 1,381,-1
 2432 800 l 1,382,-1
 2528 896 l 1,383,-1
 2560 896 l 1,384,-1
 2560 512 l 1,385,-1
 2528 512 l 1,380,-1
2784 512 m 1,386,-1
 2784 896 l 1,387,-1
 2816 896 l 1,388,-1
 2912 800 l 1,389,-1
 2912 608 l 1,390,-1
 2816 512 l 1,391,-1
 2784 512 l 1,386,-1
3264 512 m 1,392,-1
 3168 608 l 1,393,-1
 3168 800 l 1,394,-1
 3264 896 l 1,395,-1
 3296 896 l 1,396,-1
 3296 512 l 1,397,-1
 3264 512 l 1,392,-1
3552 512 m 1,398,-1
 3552 896 l 1,399,-1
 3584 896 l 1,400,-1
 3680 800 l 1,401,-1
 3680 608 l 1,402,-1
 3584 512 l 1,403,-1
 3552 512 l 1,398,-1
4032 512 m 1,404,-1
 3936 608 l 1,405,-1
 3936 800 l 1,406,-1
 4032 896 l 1,407,-1
 4064 896 l 1,408,-1
 4064 512 l 1,409,-1
 4032 512 l 1,404,-1
4288 512 m 1,410,-1
 4288 896 l 1,411,-1
 4320 896 l 1,412,-1
 4416 800 l 1,413,-1
 4416 608 l 1,414,-1
 4320 512 l 1,415,-1
 4288 512 l 1,410,-1
4768 512 m 1,416,-1
 4672 608 l 1,417,-1
 4672 800 l 1,418,-1
 4768 896 l 1,419,-1
 4800 896 l 1,420,-1
 4800 512 l 1,421,-1
 4768 512 l 1,416,-1
5056 512 m 1,422,-1
 5056 896 l 1,423,-1
 5088 896 l 1,424,-1
 5184 800 l 1,425,-1
 5184 608 l 1,426,-1
 5088 512 l 1,427,-1
 5056 512 l 1,422,-1
5536 512 m 1,428,-1
 5440 608 l 1,429,-1
 5440 800 l 1,430,-1
 5536 896 l 1,431,-1
 5568 896 l 1,432,-1
 5568 512 l 1,433,-1
 5536 512 l 1,428,-1
5792 512 m 1,434,-1
 5792 896 l 1,435,-1
 5824 896 l 1,436,-1
 5920 800 l 1,437,-1
 5920 608 l 1,438,-1
 5824 512 l 1,439,-1
 5792 512 l 1,434,-1
6272 512 m 1,440,-1
 6176 608 l 1,441,-1
 6176 800 l 1,442,-1
 6272 896 l 1,443,-1
 6304 896 l 1,444,-1
 6304 512 l 1,445,-1
 6272 512 l 1,440,-1
6432 512 m 1,446,-1
 6432 896 l 1,447,-1
 6464 896 l 1,448,-1
 6560 800 l 1,449,-1
 6560 608 l 1,450,-1
 6464 512 l 1,451,-1
 6432 512 l 1,446,-1
6912 512 m 1,452,-1
 6816 608 l 1,453,-1
 6816 800 l 1,454,-1
 6912 896 l 1,455,-1
 6944 896 l 1,456,-1
 6944 512 l 1,457,-1
 6912 512 l 1,452,-1
7232 512 m 1,458,-1
 7232 896 l 1,459,-1
 7264 896 l 1,460,-1
 7360 800 l 1,461,-1
 7360 608 l 1,462,-1
 7264 512 l 1,463,-1
 7232 512 l 1,458,-1
7712 512 m 1,464,-1
 7616 608 l 1,465,-1
 7616 800 l 1,466,-1
 7712 896 l 1,467,-1
 7744 896 l 1,468,-1
 7744 512 l 1,469,-1
 7712 512 l 1,464,-1
8032 512 m 1,470,-1
 8032 896 l 1,471,-1
 8064 896 l 1,472,-1
 8160 800 l 1,473,-1
 8160 608 l 1,474,-1
 8064 512 l 1,475,-1
 8032 512 l 1,470,-1
8512 512 m 1,476,-1
 8416 608 l 1,477,-1
 8416 800 l 1,478,-1
 8512 896 l 1,479,-1
 8544 896 l 1,480,-1
 8544 512 l 1,481,-1
 8512 512 l 1,476,-1
8672 512 m 1,482,-1
 8672 896 l 1,483,-1
 8704 896 l 1,484,-1
 8800 800 l 1,485,-1
 8800 608 l 1,486,-1
 8704 512 l 1,487,-1
 8672 512 l 1,482,-1
9152 512 m 1,488,-1
 9056 608 l 1,489,-1
 9056 800 l 1,490,-1
 9152 896 l 1,491,-1
 9184 896 l 1,492,-1
 9184 512 l 1,493,-1
 9152 512 l 1,488,-1
640 512 m 1,494,-1
 640 928 l 1,495,-1
 768 800 l 1,496,-1
 768 608 l 1,497,-1
 672 512 l 1,498,-1
 640 512 l 1,494,-1
1120 512 m 1,499,-1
 1024 608 l 1,500,-1
 1024 800 l 1,501,-1
 1152 928 l 1,502,-1
 1152 512 l 1,503,-1
 1120 512 l 1,499,-1
160 832 m 1,504,-1
 64 928 l 1,505,-1
 64 960 l 1,506,-1
 448 960 l 1,507,-1
 448 928 l 1,508,-1
 352 832 l 1,509,-1
 160 832 l 1,504,-1
800 832 m 1,510,-1
 672 960 l 1,511,-1
 1120 960 l 1,512,-1
 992 832 l 1,513,-1
 800 832 l 1,510,-1
2208 832 m 1,514,-1
 2112 928 l 1,515,-1
 2112 960 l 1,516,-1
 2496 960 l 1,517,-1
 2496 928 l 1,518,-1
 2400 832 l 1,519,-1
 2208 832 l 1,514,-1
2944 832 m 1,520,-1
 2848 928 l 1,521,-1
 2848 960 l 1,522,-1
 3232 960 l 1,523,-1
 3232 928 l 1,524,-1
 3136 832 l 1,525,-1
 2944 832 l 1,520,-1
3712 832 m 1,526,-1
 3616 928 l 1,527,-1
 3616 960 l 1,528,-1
 4000 960 l 1,529,-1
 4000 928 l 1,530,-1
 3904 832 l 1,531,-1
 3712 832 l 1,526,-1
4448 832 m 1,532,-1
 4352 928 l 1,533,-1
 4352 960 l 1,534,-1
 4736 960 l 1,535,-1
 4736 928 l 1,536,-1
 4640 832 l 1,537,-1
 4448 832 l 1,532,-1
5216 832 m 1,538,-1
 5120 928 l 1,539,-1
 5120 960 l 1,540,-1
 5504 960 l 1,541,-1
 5504 928 l 1,542,-1
 5408 832 l 1,543,-1
 5216 832 l 1,538,-1
5952 832 m 1,544,-1
 5856 928 l 1,545,-1
 5856 960 l 1,546,-1
 6240 960 l 1,547,-1
 6240 928 l 1,548,-1
 6144 832 l 1,549,-1
 5952 832 l 1,544,-1
6592 832 m 1,550,-1
 6496 928 l 1,551,-1
 6496 960 l 1,552,-1
 6880 960 l 1,553,-1
 6880 928 l 1,554,-1
 6784 832 l 1,555,-1
 6592 832 l 1,550,-1
7392 832 m 1,556,-1
 7296 928 l 1,557,-1
 7296 960 l 1,558,-1
 7680 960 l 1,559,-1
 7680 928 l 1,560,-1
 7584 832 l 1,561,-1
 7392 832 l 1,556,-1
8192 832 m 1,562,-1
 8096 928 l 1,563,-1
 8096 960 l 1,564,-1
 8480 960 l 1,565,-1
 8480 928 l 1,566,-1
 8384 832 l 1,567,-1
 8192 832 l 1,562,-1
8832 832 m 1,568,-1
 8736 928 l 1,569,-1
 8736 960 l 1,570,-1
 9120 960 l 1,571,-1
 9120 928 l 1,572,-1
 9024 832 l 1,573,-1
 8832 832 l 1,568,-1
2080 1056 m 1,574,-1
 2080 1088 l 1,575,-1
 2176 1184 l 1,576,-1
 2368 1184 l 1,577,-1
 2464 1088 l 1,578,-1
 2464 1056 l 1,579,-1
 2080 1056 l 1,574,-1
2848 1056 m 1,580,-1
 2848 1088 l 1,581,-1
 2944 1184 l 1,582,-1
 3136 1184 l 1,583,-1
 3232 1088 l 1,584,-1
 3232 1056 l 1,585,-1
 2848 1056 l 1,580,-1
5120 1056 m 1,586,-1
 5120 1088 l 1,587,-1
 5216 1184 l 1,588,-1
 5408 1184 l 1,589,-1
 5504 1088 l 1,590,-1
 5504 1056 l 1,591,-1
 5120 1056 l 1,586,-1
5888 1056 m 1,592,-1
 5888 1088 l 1,593,-1
 5984 1184 l 1,594,-1
 6176 1184 l 1,595,-1
 6272 1088 l 1,596,-1
 6272 1056 l 1,597,-1
 5888 1056 l 1,592,-1
6528 1056 m 1,598,-1
 6528 1088 l 1,599,-1
 6624 1184 l 1,600,-1
 6816 1184 l 1,601,-1
 6912 1088 l 1,602,-1
 6912 1056 l 1,603,-1
 6528 1056 l 1,598,-1
5696 1056 m 1,604,-1
 5632 1120 l 1,605,-1
 5632 1184 l 1,606,-1
 5696 1248 l 1,607,-1
 5760 1184 l 1,608,-1
 5760 1120 l 1,609,-1
 5696 1056 l 1,604,-1
2656 1216 m 1,610,-1
 2592 1280 l 1,611,-1
 2592 1344 l 1,612,-1
 2656 1408 l 1,613,-1
 2720 1344 l 1,614,-1
 2720 1280 l 1,615,-1
 2656 1216 l 1,610,-1
2016 1120 m 1,616,-1
 2016 1504 l 1,617,-1
 2048 1504 l 1,618,-1
 2144 1408 l 1,619,-1
 2144 1216 l 1,620,-1
 2048 1120 l 1,621,-1
 2016 1120 l 1,616,-1
2496 1120 m 1,622,-1
 2400 1216 l 1,623,-1
 2400 1408 l 1,624,-1
 2496 1504 l 1,625,-1
 2528 1504 l 1,626,-1
 2528 1120 l 1,627,-1
 2496 1120 l 1,622,-1
2784 1120 m 1,628,-1
 2784 1504 l 1,629,-1
 2816 1504 l 1,630,-1
 2912 1408 l 1,631,-1
 2912 1216 l 1,632,-1
 2816 1120 l 1,633,-1
 2784 1120 l 1,628,-1
3264 1120 m 1,634,-1
 3168 1216 l 1,635,-1
 3168 1408 l 1,636,-1
 3264 1504 l 1,637,-1
 3296 1504 l 1,638,-1
 3296 1120 l 1,639,-1
 3264 1120 l 1,634,-1
5056 1120 m 1,640,-1
 5056 1504 l 1,641,-1
 5088 1504 l 1,642,-1
 5184 1408 l 1,643,-1
 5184 1216 l 1,644,-1
 5088 1120 l 1,645,-1
 5056 1120 l 1,640,-1
5536 1120 m 1,646,-1
 5440 1216 l 1,647,-1
 5440 1408 l 1,648,-1
 5536 1504 l 1,649,-1
 5568 1504 l 1,650,-1
 5568 1120 l 1,651,-1
 5536 1120 l 1,646,-1
5824 1120 m 1,652,-1
 5824 1504 l 1,653,-1
 5856 1504 l 1,654,-1
 5952 1408 l 1,655,-1
 5952 1216 l 1,656,-1
 5856 1120 l 1,657,-1
 5824 1120 l 1,652,-1
6304 1120 m 1,658,-1
 6208 1216 l 1,659,-1
 6208 1408 l 1,660,-1
 6304 1504 l 1,661,-1
 6336 1504 l 1,662,-1
 6336 1120 l 1,663,-1
 6304 1120 l 1,658,-1
6464 1120 m 1,664,-1
 6464 1504 l 1,665,-1
 6496 1504 l 1,666,-1
 6592 1408 l 1,667,-1
 6592 1216 l 1,668,-1
 6496 1120 l 1,669,-1
 6464 1120 l 1,664,-1
6944 1120 m 1,670,-1
 6848 1216 l 1,671,-1
 6848 1408 l 1,672,-1
 6944 1504 l 1,673,-1
 6976 1504 l 1,674,-1
 6976 1120 l 1,675,-1
 6944 1120 l 1,670,-1
2144 1472 m 1,676,-1
 2080 1536 l 1,677,-1
 2144 1600 l 1,678,-1
 2400 1600 l 1,679,-1
 2464 1536 l 1,680,-1
 2400 1472 l 1,681,-1
 2144 1472 l 1,676,-1
2912 1472 m 1,682,-1
 2848 1536 l 1,683,-1
 2912 1600 l 1,684,-1
 3168 1600 l 1,685,-1
 3232 1536 l 1,686,-1
 3168 1472 l 1,687,-1
 2912 1472 l 1,682,-1
5184 1472 m 1,688,-1
 5120 1536 l 1,689,-1
 5184 1600 l 1,690,-1
 5440 1600 l 1,691,-1
 5504 1536 l 1,692,-1
 5440 1472 l 1,693,-1
 5184 1472 l 1,688,-1
5952 1472 m 1,694,-1
 5888 1536 l 1,695,-1
 5952 1600 l 1,696,-1
 6208 1600 l 1,697,-1
 6272 1536 l 1,698,-1
 6208 1472 l 1,699,-1
 5952 1472 l 1,694,-1
6592 1472 m 1,700,-1
 6528 1536 l 1,701,-1
 6592 1600 l 1,702,-1
 6848 1600 l 1,703,-1
 6912 1536 l 1,704,-1
 6848 1472 l 1,705,-1
 6592 1472 l 1,700,-1
2656 1664 m 1,706,-1
 2592 1728 l 1,707,-1
 2592 1792 l 1,708,-1
 2656 1856 l 1,709,-1
 2720 1792 l 1,710,-1
 2720 1728 l 1,711,-1
 2656 1664 l 1,706,-1
2016 1568 m 1,712,-1
 2016 1952 l 1,713,-1
 2048 1952 l 1,714,-1
 2144 1856 l 1,715,-1
 2144 1664 l 1,716,-1
 2048 1568 l 1,717,-1
 2016 1568 l 1,712,-1
2496 1568 m 1,718,-1
 2400 1664 l 1,719,-1
 2400 1856 l 1,720,-1
 2496 1952 l 1,721,-1
 2528 1952 l 1,722,-1
 2528 1568 l 1,723,-1
 2496 1568 l 1,718,-1
2784 1568 m 1,724,-1
 2784 1952 l 1,725,-1
 2816 1952 l 1,726,-1
 2912 1856 l 1,727,-1
 2912 1664 l 1,728,-1
 2816 1568 l 1,729,-1
 2784 1568 l 1,724,-1
3264 1568 m 1,730,-1
 3168 1664 l 1,731,-1
 3168 1856 l 1,732,-1
 3264 1952 l 1,733,-1
 3296 1952 l 1,734,-1
 3296 1568 l 1,735,-1
 3264 1568 l 1,730,-1
5056 1568 m 1,736,-1
 5056 1952 l 1,737,-1
 5088 1952 l 1,738,-1
 5184 1856 l 1,739,-1
 5184 1664 l 1,740,-1
 5088 1568 l 1,741,-1
 5056 1568 l 1,736,-1
5536 1568 m 1,742,-1
 5440 1664 l 1,743,-1
 5440 1856 l 1,744,-1
 5536 1952 l 1,745,-1
 5568 1952 l 1,746,-1
 5568 1568 l 1,747,-1
 5536 1568 l 1,742,-1
5824 1568 m 1,748,-1
 5824 1952 l 1,749,-1
 5856 1952 l 1,750,-1
 5952 1856 l 1,751,-1
 5952 1664 l 1,752,-1
 5856 1568 l 1,753,-1
 5824 1568 l 1,748,-1
6304 1568 m 1,754,-1
 6208 1664 l 1,755,-1
 6208 1856 l 1,756,-1
 6304 1952 l 1,757,-1
 6336 1952 l 1,758,-1
 6336 1568 l 1,759,-1
 6304 1568 l 1,754,-1
6464 1568 m 1,760,-1
 6464 1952 l 1,761,-1
 6496 1952 l 1,762,-1
 6592 1856 l 1,763,-1
 6592 1664 l 1,764,-1
 6496 1568 l 1,765,-1
 6464 1568 l 1,760,-1
6944 1568 m 1,766,-1
 6848 1664 l 1,767,-1
 6848 1856 l 1,768,-1
 6944 1952 l 1,769,-1
 6976 1952 l 1,770,-1
 6976 1568 l 1,771,-1
 6944 1568 l 1,766,-1
2176 1888 m 1,772,-1
 2080 1984 l 1,773,-1
 2080 2016 l 1,774,-1
 2464 2016 l 1,775,-1
 2464 1984 l 1,776,-1
 2368 1888 l 1,777,-1
 2176 1888 l 1,772,-1
2944 1888 m 1,778,-1
 2848 1984 l 1,779,-1
 2848 2016 l 1,780,-1
 3232 2016 l 1,781,-1
 3232 1984 l 1,782,-1
 3136 1888 l 1,783,-1
 2944 1888 l 1,778,-1
5216 1888 m 1,784,-1
 5120 1984 l 1,785,-1
 5120 2016 l 1,786,-1
 5504 2016 l 1,787,-1
 5504 1984 l 1,788,-1
 5408 1888 l 1,789,-1
 5216 1888 l 1,784,-1
5984 1888 m 1,790,-1
 5888 1984 l 1,791,-1
 5888 2016 l 1,792,-1
 6272 2016 l 1,793,-1
 6272 1984 l 1,794,-1
 6176 1888 l 1,795,-1
 5984 1888 l 1,790,-1
6624 1888 m 1,796,-1
 6528 1984 l 1,797,-1
 6528 2016 l 1,798,-1
 6912 2016 l 1,799,-1
 6912 1984 l 1,800,-1
 6816 1888 l 1,801,-1
 6624 1888 l 1,796,-1
EndSplineSet
EndChar

StartChar: A
Encoding: 65 65 15
Width: 640
Flags: W
LayerCount: 2
Fore
SplineSet
64 0 m 1,0,-1
 64 32 l 1,1,-1
 160 128 l 1,2,-1
 352 128 l 1,3,-1
 448 32 l 1,4,-1
 448 0 l 1,5,-1
 64 0 l 1,0,-1
0 64 m 1,6,-1
 0 448 l 1,7,-1
 32 448 l 1,8,-1
 128 352 l 1,9,-1
 128 160 l 1,10,-1
 32 64 l 1,11,-1
 0 64 l 1,6,-1
480 64 m 1,12,-1
 384 160 l 1,13,-1
 384 352 l 1,14,-1
 480 448 l 1,15,-1
 512 448 l 1,16,-1
 512 64 l 1,17,-1
 480 64 l 1,12,-1
0 512 m 1,18,-1
 0 896 l 1,19,-1
 32 896 l 1,20,-1
 128 800 l 1,21,-1
 128 608 l 1,22,-1
 32 512 l 1,23,-1
 0 512 l 1,18,-1
480 512 m 1,24,-1
 384 608 l 1,25,-1
 384 800 l 1,26,-1
 480 896 l 1,27,-1
 512 896 l 1,28,-1
 512 512 l 1,29,-1
 480 512 l 1,24,-1
160 832 m 1,30,-1
 64 928 l 1,31,-1
 64 960 l 1,32,-1
 448 960 l 1,33,-1
 448 928 l 1,34,-1
 352 832 l 1,35,-1
 160 832 l 1,30,-1
EndSplineSet
EndChar

StartChar: B
Encoding: 66 66 16
Width: 640
Flags: W
LayerCount: 2
Fore
SplineSet
64 0 m 1,0,-1
 64 32 l 1,1,-1
 160 128 l 1,2,-1
 352 128 l 1,3,-1
 448 32 l 1,4,-1
 448 0 l 1,5,-1
 64 0 l 1,0,-1
0 64 m 1,6,-1
 0 448 l 1,7,-1
 32 448 l 1,8,-1
 128 352 l 1,9,-1
 128 160 l 1,10,-1
 32 64 l 1,11,-1
 0 64 l 1,6,-1
128 416 m 1,12,-1
 64 480 l 1,13,-1
 128 544 l 1,14,-1
 384 544 l 1,15,-1
 448 480 l 1,16,-1
 384 416 l 1,17,-1
 128 416 l 1,12,-1
0 512 m 1,18,-1
 0 896 l 1,19,-1
 32 896 l 1,20,-1
 128 800 l 1,21,-1
 128 608 l 1,22,-1
 32 512 l 1,23,-1
 0 512 l 1,18,-1
160 832 m 1,24,-1
 64 928 l 1,25,-1
 64 960 l 1,26,-1
 448 960 l 1,27,-1
 448 928 l 1,28,-1
 352 832 l 1,29,-1
 160 832 l 1,24,-1
EndSplineSet
EndChar

StartChar: C
Encoding: 67 67 17
Width: 640
Flags: W
LayerCount: 2
Fore
SplineSet
480 64 m 1,0,-1
 384 160 l 1,1,-1
 384 352 l 1,2,-1
 480 448 l 1,3,-1
 512 448 l 1,4,-1
 512 64 l 1,5,-1
 480 64 l 1,0,-1
0 512 m 1,6,-1
 0 896 l 1,7,-1
 32 896 l 1,8,-1
 128 800 l 1,9,-1
 128 608 l 1,10,-1
 32 512 l 1,11,-1
 0 512 l 1,6,-1
EndSplineSet
EndChar

StartChar: D
Encoding: 68 68 18
Width: 640
Flags: W
LayerCount: 2
Fore
SplineSet
64 0 m 1,0,-1
 64 32 l 1,1,-1
 160 128 l 1,2,-1
 352 128 l 1,3,-1
 448 32 l 1,4,-1
 448 0 l 1,5,-1
 64 0 l 1,0,-1
480 64 m 1,6,-1
 384 160 l 1,7,-1
 384 352 l 1,8,-1
 480 448 l 1,9,-1
 512 448 l 1,10,-1
 512 64 l 1,11,-1
 480 64 l 1,6,-1
128 416 m 1,12,-1
 64 480 l 1,13,-1
 128 544 l 1,14,-1
 384 544 l 1,15,-1
 448 480 l 1,16,-1
 384 416 l 1,17,-1
 128 416 l 1,12,-1
480 512 m 1,18,-1
 384 608 l 1,19,-1
 384 800 l 1,20,-1
 480 896 l 1,21,-1
 512 896 l 1,22,-1
 512 512 l 1,23,-1
 480 512 l 1,18,-1
160 832 m 1,24,-1
 64 928 l 1,25,-1
 64 960 l 1,26,-1
 448 960 l 1,27,-1
 448 928 l 1,28,-1
 352 832 l 1,29,-1
 160 832 l 1,24,-1
EndSplineSet
EndChar

StartChar: E
Encoding: 69 69 19
Width: 640
Flags: W
LayerCount: 2
Fore
SplineSet
480 64 m 1,0,-1
 384 160 l 1,1,-1
 384 352 l 1,2,-1
 480 448 l 1,3,-1
 512 448 l 1,4,-1
 512 64 l 1,5,-1
 480 64 l 1,0,-1
128 416 m 1,6,-1
 64 480 l 1,7,-1
 128 544 l 1,8,-1
 384 544 l 1,9,-1
 448 480 l 1,10,-1
 384 416 l 1,11,-1
 128 416 l 1,6,-1
0 512 m 1,12,-1
 0 896 l 1,13,-1
 32 896 l 1,14,-1
 128 800 l 1,15,-1
 128 608 l 1,16,-1
 32 512 l 1,17,-1
 0 512 l 1,12,-1
480 512 m 1,18,-1
 384 608 l 1,19,-1
 384 800 l 1,20,-1
 480 896 l 1,21,-1
 512 896 l 1,22,-1
 512 512 l 1,23,-1
 480 512 l 1,18,-1
EndSplineSet
EndChar

StartChar: F
Encoding: 70 70 20
Width: 640
Flags: W
LayerCount: 2
Fore
SplineSet
64 0 m 1,0,-1
 64 32 l 1,1,-1
 160 128 l 1,2,-1
 352 128 l 1,3,-1
 448 32 l 1,4,-1
 448 0 l 1,5,-1
 64 0 l 1,0,-1
480 64 m 1,6,-1
 384 160 l 1,7,-1
 384 352 l 1,8,-1
 480 448 l 1,9,-1
 512 448 l 1,10,-1
 512 64 l 1,11,-1
 480 64 l 1,6,-1
128 416 m 1,12,-1
 64 480 l 1,13,-1
 128 544 l 1,14,-1
 384 544 l 1,15,-1
 448 480 l 1,16,-1
 384 416 l 1,17,-1
 128 416 l 1,12,-1
0 512 m 1,18,-1
 0 896 l 1,19,-1
 32 896 l 1,20,-1
 128 800 l 1,21,-1
 128 608 l 1,22,-1
 32 512 l 1,23,-1
 0 512 l 1,18,-1
160 832 m 1,24,-1
 64 928 l 1,25,-1
 64 960 l 1,26,-1
 448 960 l 1,27,-1
 448 928 l 1,28,-1
 352 832 l 1,29,-1
 160 832 l 1,24,-1
EndSplineSet
EndChar

StartChar: G
Encoding: 71 71 21
Width: 640
Flags: W
LayerCount: 2
Fore
SplineSet
64 0 m 1,0,-1
 64 32 l 1,1,-1
 160 128 l 1,2,-1
 352 128 l 1,3,-1
 448 32 l 1,4,-1
 448 0 l 1,5,-1
 64 0 l 1,0,-1
0 64 m 1,6,-1
 0 448 l 1,7,-1
 32 448 l 1,8,-1
 128 352 l 1,9,-1
 128 160 l 1,10,-1
 32 64 l 1,11,-1
 0 64 l 1,6,-1
480 64 m 1,12,-1
 384 160 l 1,13,-1
 384 352 l 1,14,-1
 480 448 l 1,15,-1
 512 448 l 1,16,-1
 512 64 l 1,17,-1
 480 64 l 1,12,-1
128 416 m 1,18,-1
 64 480 l 1,19,-1
 128 544 l 1,20,-1
 384 544 l 1,21,-1
 448 480 l 1,22,-1
 384 416 l 1,23,-1
 128 416 l 1,18,-1
0 512 m 1,24,-1
 0 896 l 1,25,-1
 32 896 l 1,26,-1
 128 800 l 1,27,-1
 128 608 l 1,28,-1
 32 512 l 1,29,-1
 0 512 l 1,24,-1
160 832 m 1,30,-1
 64 928 l 1,31,-1
 64 960 l 1,32,-1
 448 960 l 1,33,-1
 448 928 l 1,34,-1
 352 832 l 1,35,-1
 160 832 l 1,30,-1
EndSplineSet
EndChar

StartChar: H
Encoding: 72 72 22
Width: 640
Flags: W
LayerCount: 2
Fore
SplineSet
480 64 m 1,0,-1
 384 160 l 1,1,-1
 384 352 l 1,2,-1
 480 448 l 1,3,-1
 512 448 l 1,4,-1
 512 64 l 1,5,-1
 480 64 l 1,0,-1
480 512 m 1,6,-1
 384 608 l 1,7,-1
 384 800 l 1,8,-1
 480 896 l 1,9,-1
 512 896 l 1,10,-1
 512 512 l 1,11,-1
 480 512 l 1,6,-1
160 832 m 1,12,-1
 64 928 l 1,13,-1
 64 960 l 1,14,-1
 448 960 l 1,15,-1
 448 928 l 1,16,-1
 352 832 l 1,17,-1
 160 832 l 1,12,-1
EndSplineSet
EndChar

StartChar: I
Encoding: 73 73 23
Width: 640
Flags: W
LayerCount: 2
Fore
SplineSet
64 0 m 1,0,-1
 64 32 l 1,1,-1
 160 128 l 1,2,-1
 352 128 l 1,3,-1
 448 32 l 1,4,-1
 448 0 l 1,5,-1
 64 0 l 1,0,-1
0 64 m 1,6,-1
 0 448 l 1,7,-1
 32 448 l 1,8,-1
 128 352 l 1,9,-1
 128 160 l 1,10,-1
 32 64 l 1,11,-1
 0 64 l 1,6,-1
480 64 m 1,12,-1
 384 160 l 1,13,-1
 384 352 l 1,14,-1
 480 448 l 1,15,-1
 512 448 l 1,16,-1
 512 64 l 1,17,-1
 480 64 l 1,12,-1
128 416 m 1,18,-1
 64 480 l 1,19,-1
 128 544 l 1,20,-1
 384 544 l 1,21,-1
 448 480 l 1,22,-1
 384 416 l 1,23,-1
 128 416 l 1,18,-1
0 512 m 1,24,-1
 0 896 l 1,25,-1
 32 896 l 1,26,-1
 128 800 l 1,27,-1
 128 608 l 1,28,-1
 32 512 l 1,29,-1
 0 512 l 1,24,-1
480 512 m 1,30,-1
 384 608 l 1,31,-1
 384 800 l 1,32,-1
 480 896 l 1,33,-1
 512 896 l 1,34,-1
 512 512 l 1,35,-1
 480 512 l 1,30,-1
160 832 m 1,36,-1
 64 928 l 1,37,-1
 64 960 l 1,38,-1
 448 960 l 1,39,-1
 448 928 l 1,40,-1
 352 832 l 1,41,-1
 160 832 l 1,36,-1
EndSplineSet
EndChar

StartChar: J
Encoding: 74 74 24
Width: 640
Flags: W
LayerCount: 2
Fore
SplineSet
64 0 m 1,0,-1
 64 32 l 1,1,-1
 160 128 l 1,2,-1
 352 128 l 1,3,-1
 448 32 l 1,4,-1
 448 0 l 1,5,-1
 64 0 l 1,0,-1
480 64 m 1,6,-1
 384 160 l 1,7,-1
 384 352 l 1,8,-1
 480 448 l 1,9,-1
 512 448 l 1,10,-1
 512 64 l 1,11,-1
 480 64 l 1,6,-1
128 416 m 1,12,-1
 64 480 l 1,13,-1
 128 544 l 1,14,-1
 384 544 l 1,15,-1
 448 480 l 1,16,-1
 384 416 l 1,17,-1
 128 416 l 1,12,-1
0 512 m 1,18,-1
 0 896 l 1,19,-1
 32 896 l 1,20,-1
 128 800 l 1,21,-1
 128 608 l 1,22,-1
 32 512 l 1,23,-1
 0 512 l 1,18,-1
480 512 m 1,24,-1
 384 608 l 1,25,-1
 384 800 l 1,26,-1
 480 896 l 1,27,-1
 512 896 l 1,28,-1
 512 512 l 1,29,-1
 480 512 l 1,24,-1
160 832 m 1,30,-1
 64 928 l 1,31,-1
 64 960 l 1,32,-1
 448 960 l 1,33,-1
 448 928 l 1,34,-1
 352 832 l 1,35,-1
 160 832 l 1,30,-1
EndSplineSet
EndChar

StartChar: K
Encoding: 75 75 25
Width: 256
Flags: W
LayerCount: 2
Fore
SplineSet
64 160 m 1,0,-1
 0 224 l 1,1,-1
 0 288 l 1,2,-1
 64 352 l 1,3,-1
 128 288 l 1,4,-1
 128 224 l 1,5,-1
 64 160 l 1,0,-1
64 608 m 1,6,-1
 0 672 l 1,7,-1
 0 736 l 1,8,-1
 64 800 l 1,9,-1
 128 736 l 1,10,-1
 128 672 l 1,11,-1
 64 608 l 1,6,-1
EndSplineSet
EndChar
